<svg xmlns="http://www.w3.org/2000/svg" width="100mm" height="100mm" viewBox="0 0 90 90">
<path style="fill:#ffffff; stroke:none;" d="M0 0L0 20L10 20L10 10L40 10L40 0L0 0z"></path>
<path style="fill:#000000; stroke:none;" d="M40 0L40 10L10 10L10 20L0 20L0 40L10 40L10 50L0 50L0 60L10 60L10 80L0 80L0 90L30 90L30 80L50 80L50 90L80 90L80 80L90 80L90 70L80 70L80 50L90 50L90 30L80 30L80 10L50 10L50 0L40 0z"></path>
<path style="fill:#ffffff; stroke:none;" d="M50 0L50 10L80 10L80 30L90 30L90 0L50 0M20 20L20 70L70 70L70 20L20 20z"></path>
<path style="fill:#000000; stroke:none;" d="M30 30L30 60L40 60L40 50L50 50L50 60L60 60L60 30L50 30L50 40L40 40L40 30L30 30z"></path>
<path style="fill:#ffffff; stroke:none;" d="M0 40L0 50L10 50L10 40L0 40M80 50L80 70L90 70L90 50L80 50M0 60L0 80L10 80L10 60L0 60M30 80L30 90L50 90L50 80L30 80M80 80L80 90L90 90L90 80L80 80z"></path>
</svg>