<svg xmlns="http://www.w3.org/2000/svg" width="100mm" height="100mm" viewBox="0 0 90 90">
<path style="fill:#000000; stroke:none;" d="M0 0L0 10L10 10L10 20L0 20L0 30L10 30L10 40L0 40L0 60L10 60L10 70L0 70L0 80L70 80L70 90L80 90L80 60L90 60L90 40L80 40L80 30L90 30L90 0L80 0L80 10L70 10L70 0L60 0L60 10L10 10L10 0L0 0z"></path>
<path style="fill:#ffffff; stroke:none;" d="M10 0L10 10L60 10L60 0L10 0M70 0L70 10L80 10L80 0L70 0M0 10L0 20L10 20L10 10L0 10M20 20L20 70L70 70L70 20L20 20M0 30L0 40L10 40L10 30L0 30z"></path>
<path style="fill:#000000; stroke:none;" d="M40 30L40 40L30 40L30 50L40 50L40 60L50 60L50 50L60 50L60 40L50 40L50 30L40 30z"></path>
<path style="fill:#ffffff; stroke:none;" d="M80 30L80 40L90 40L90 30L80 30M0 60L0 70L10 70L10 60L0 60M80 60L80 90L90 90L90 60L80 60M0 80L0 90L70 90L70 80L0 80z"></path>
</svg>