<svg xmlns="http://www.w3.org/2000/svg" width="100mm" height="100mm" viewBox="0 0 90 90">
<path style="fill:#ffffff; stroke:none;" d="M0 0L0 10L40 10L40 0L0 0z"></path>
<path style="fill:#000000; stroke:none;" d="M40 0L40 10L0 10L0 20L10 20L10 40L0 40L0 60L10 60L10 80L0 80L0 90L30 90L30 80L60 80L60 90L70 90L70 80L80 80L80 90L90 90L90 70L80 70L80 60L90 60L90 50L80 50L80 20L90 20L90 0L70 0L70 10L60 10L60 0L40 0z"></path>
<path style="fill:#ffffff; stroke:none;" d="M60 0L60 10L70 10L70 0L60 0M0 20L0 40L10 40L10 20L0 20M20 20L20 70L70 70L70 20L20 20M80 20L80 50L90 50L90 20L80 20z"></path>
<path style="fill:#000000; stroke:none;" d="M40 30L40 40L30 40L30 60L50 60L50 50L60 50L60 30L40 30z"></path>
<path style="fill:#ffffff; stroke:none;" d="M40 40L40 50L50 50L50 40L40 40M0 60L0 80L10 80L10 60L0 60M80 60L80 70L90 70L90 60L80 60M30 80L30 90L60 90L60 80L30 80M70 80L70 90L80 90L80 80L70 80z"></path>
</svg>